<?xml version="1.0" encoding="UTF-8"?> <svg xmlns="http://www.w3.org/2000/svg" id="Layer_2" data-name="Layer 2" viewBox="0 0 1242.89 1237.95"><defs><style> .cls-1 { fill: #fff; } </style></defs><g id="Layer_1-2" data-name="Layer 1"><path class="cls-1" d="M626.41,212.42c-224.54,0-406.6,182.03-406.6,406.55s182.06,406.53,406.6,406.53,406.55-181.98,406.55-406.53-182.03-406.55-406.55-406.55ZM926.85,770.44h-83.93v-216.47c0-8.08-4.56-15.93-12.17-18.67-10.25-3.71-20.06.82-24.42,8.62-1.5,2.7-7.35,13.46-9.1,16.71h-.02l-114.07,209.81h-110.56l-114.07-209.81c-1.77-3.25-7.59-14.01-9.12-16.71-4.07-7.29-12.88-11.72-22.46-9.24-8.63,2.24-14.13,10.8-14.13,19.71v216.05s-94.42,0-94.42,0v-236.53s1.98-99.62,96.44-99.62c76.14,0,107.47,60.8,116.95,78.74l90.85,172.05,90.84-172.05c9.47-17.95,40.78-78.74,116.92-78.74,94.46,0,96.46,99.62,96.46,99.62v236.53ZM1101.26,422.41c17.22-93.68,141.63-63.49,141.63-63.49,0,0-227.09-58.59-402.89-195.32C732.13,79.67,874.19,0,874.19,0c0,0-329.65,158.7-439.53,139.18C337.41,121.89,361.42,2.42,361.42,2.42c0,0-140.27,333.09-185.6,390.69C85.46,507.87,0,366.25,0,366.25c0,0,148.42,323.91,151.4,405.34,4.58,126.25-113.16,110.85-151.4,107.36,51.22,17.1,268.92,69.55,410.24,200.27,82.09,75.98-39.07,158.73-39.07,158.73,0,0,319.88-161.18,427.31-144.08,107.46,17.1,85.46,141.63,85.46,141.63,0,0,109.88-358.92,229.54-424.84,68.19-37.59,129.4,61.04,129.4,61.04,0,0-163.6-329.63-141.63-449.29ZM626.34,1074.35c-251.51,0-455.42-203.86-455.42-455.38s203.91-455.39,455.42-455.39,455.39,203.88,455.39,455.39-203.88,455.38-455.39,455.38Z"></path></g></svg> 